<svg xmlns="http://www.w3.org/2000/svg" viewBox="0 0 64 64">
<rect width="64" height="64" rx="13" fill="#5a3524"/>
<g stroke="#351c15" stroke-width="2.1" stroke-linejoin="round" stroke-linecap="round">
  <ellipse cx="8.5" cy="22.5" rx="4.8" ry="7.8" fill="#b5793f"/>
  <ellipse cx="27.5" cy="22.5" rx="4.8" ry="7.8" fill="#b5793f"/>
  <circle cx="18" cy="21" r="10.6" fill="#f5efe6"/>
  <path d="M12 15.4a5.6 4.4 0 1 0 6 4.2 5.6 4.4 0 0 0-6-4.2z" fill="#b5793f" stroke="none"/>
  <ellipse cx="20" cy="24.4" rx="6.2" ry="4.6" fill="#fff9f0"/>
  <path d="M36 7.5l2 11 8.5-5z" fill="#f2ece1"/>
  <path d="M57 7.5l-2 11-8.5-5z" fill="#f2ece1"/>
  <circle cx="46.5" cy="21" r="10.6" fill="#f2ece1"/>
</g>
<g fill="#351c15">
  <circle cx="14.7" cy="19.6" r="2.4"/><circle cx="22.5" cy="19.6" r="2.4"/>
  <circle cx="42.5" cy="19.6" r="2.4"/><circle cx="50.5" cy="19.6" r="2.4"/>
</g>
<g fill="#ffffff">
  <circle cx="13.9" cy="18.7" r="0.9"/><circle cx="21.7" cy="18.7" r="0.9"/>
  <circle cx="41.7" cy="18.7" r="0.9"/><circle cx="49.7" cy="18.7" r="0.9"/>
</g>
<g fill="#e88a86" opacity="0.6">
  <ellipse cx="38.6" cy="24" rx="2.9" ry="1.9"/><ellipse cx="54.4" cy="24" rx="2.9" ry="1.9"/>
</g>
<g fill="#351c15">
  <ellipse cx="20" cy="22.6" rx="2.2" ry="1.7"/>
  <path d="M46.5 23.6l-2.1-2h4.2z"/>
</g>
<g stroke="#f2ece1" stroke-width="1" stroke-linecap="round" fill="none">
  <path d="M36 20.8l-4.4-.9M35.8 23.4l-4.4.5M36.2 26l-4.2 1.6"/>
  <path d="M57 20.8l4.4-.9M57.2 23.4l4.4.5M56.8 26l4.2 1.6"/>
</g>
<path d="M43.7 26.6a3 3 0 0 0 5.6 0" fill="none" stroke="#351c15" stroke-width="1" stroke-linecap="round"/>
<circle cx="32" cy="47.5" r="13.5" fill="#ffb500" stroke="#351c15" stroke-width="2.5"/>
<circle cx="32" cy="47.5" r="9.6" fill="none" stroke="#351c15" stroke-width="1.2"/>
<path d="M32 40.6v13.8M28.6 43.8c0-2 6.8-2 6.8 0s-6.8 1.6-6.8 3.7 6.8 2.1 6.8 0"
      fill="none" stroke="#351c15" stroke-width="2.4"
      stroke-linecap="round" stroke-linejoin="round"/>
</svg>